<svg height="512pt" viewBox="0 0 512 512" width="512pt" xmlns="http://www.w3.org/2000/svg"><path d="m237 342v-152h-57c-11.046875 0-20-8.953125-20-20s8.953125-20 20-20h152c11.046875 0 20 8.953125 20 20s-8.953125 20-20 20h-55v152c0 11.046875-8.953125 20-20 20s-20-8.953125-20-20zm275-322v80c0 11.046875-8.953125 20-20 20h-20v167c0 11.046875-8.953125 20-20 20s-20-8.953125-20-20v-167h-20c-11.046875 0-20-8.953125-20-20v-20h-272v20c0 11.046875-8.953125 20-20 20h-20v272h20c11.046875 0 20 8.953125 20 20v20h164c11.046875 0 20 8.953125 20 20s-8.953125 20-20 20h-164v20c0 11.046875-8.953125 20-20 20h-80c-11.046875 0-20-8.953125-20-20v-80c0-11.046875 8.953125-20 20-20h20v-272h-20c-11.046875 0-20-8.953125-20-20v-80c0-11.046875 8.953125-20 20-20h80c11.046875 0 20 8.953125 20 20v20h272v-20c0-11.046875 8.953125-20 20-20h80c11.046875 0 20 8.953125 20 20zm-432 412h-40v40h40zm0-392h-40v40h40zm392 0h-40v40h40zm39 316v106c0 27.570312-22.429688 50-50 50h-108c-8.117188 0-15.425781-4.902344-18.503906-12.414062-3.082032-7.507813-1.3125-16.132813 4.464844-21.832032l138-136c5.742187-5.65625 14.324218-7.316406 21.761718-4.203125s12.277344 10.386719 12.277344 18.449219zm-40 47.789062-69.214844 68.210938h59.214844c5.515625 0 10-4.484375 10-10zm0 0"/></svg>