<svg height='300px' width='300px'  fill="#000000" xmlns:dc="http://purl.org/dc/elements/1.1/" xmlns:cc="http://creativecommons.org/ns#" xmlns:rdf="http://www.w3.org/1999/02/22-rdf-syntax-ns#" xmlns:svg="http://www.w3.org/2000/svg" xmlns="http://www.w3.org/2000/svg" xmlns:sodipodi="http://sodipodi.sourceforge.net/DTD/sodipodi-0.dtd" xmlns:inkscape="http://www.inkscape.org/namespaces/inkscape" viewBox="0 0 32 32" version="1.1" x="0px" y="0px"><g transform="translate(0,-1020.3622)"><path style="color:#000000;font-style:normal;font-variant:normal;font-weight:normal;font-stretch:normal;font-size:medium;line-height:normal;font-family:sans-serif;text-indent:0;text-align:start;text-decoration:none;text-decoration-line:none;text-decoration-style:solid;text-decoration-color:#000000;letter-spacing:normal;word-spacing:normal;text-transform:none;direction:ltr;block-progression:tb;writing-mode:lr-tb;baseline-shift:baseline;text-anchor:start;white-space:normal;clip-rule:nonzero;display:inline;overflow:visible;visibility:visible;opacity:1;isolation:auto;mix-blend-mode:normal;color-interpolation:sRGB;color-interpolation-filters:linearRGB;solid-color:#000000;solid-opacity:1;fill:#000000;fill-opacity:1;fill-rule:evenodd;stroke:none;stroke-width:1px;stroke-linecap:butt;stroke-linejoin:miter;stroke-miterlimit:4;stroke-dasharray:none;stroke-dashoffset:0;stroke-opacity:1;color-rendering:auto;image-rendering:auto;shape-rendering:auto;text-rendering:auto;enable-background:accumulate" d="m 17.892578,1033.3477 c -0.656009,0.031 -1.302001,0.1257 -1.917969,0.2246 -1.47007,0.2358 -3.048277,0.537 -4.416015,1.3652 -1.318411,0.7982 -2.5274593,1.929 -3.2832034,3.3223 -0.7989325,1.473 -0.9358859,3.1709 -1.0429687,4.7129 -0.071788,1.0324 -0.027011,2.1076 0.2421875,3.1406 0.3373813,1.2951 0.7692255,2.7415 1.7851562,3.8105 1.1232604,1.1819 2.6915684,1.8217 4.1738284,2.2032 1.322474,0.3397 2.695733,0.2603 3.974609,0.086 1.671842,-0.2281 3.542877,-0.4821 5.060547,-1.5371 1.338617,-0.9305 2.281282,-2.359 2.898438,-3.8047 0.722095,-1.6915 1.017722,-3.6014 0.871093,-5.4316 -0.151219,-1.8893 -0.548792,-4.0109 -1.857422,-5.5567 -1.148733,-1.3568 -2.906683,-2.0034 -4.503906,-2.3789 -0.661385,-0.1557 -1.328365,-0.1877 -1.984375,-0.1562 z m 1.75586,1.1289 c 1.501177,0.3529 3.050283,0.9679 3.96875,2.0527 1.07557,1.2705 1.480618,3.1864 1.625,4.9902 0.133571,1.6673 -0.141417,3.4282 -0.794922,4.959 -0.565045,1.3237 -1.427446,2.5975 -2.548828,3.377 -1.256331,0.8733 -2.959443,1.1399 -4.625,1.3672 -1.221125,0.1665 -2.469672,0.2238 -3.591797,-0.064 -1.381941,-0.3556 -2.771974,-0.9523 -3.6953129,-1.9238 -0.7966692,-0.8384 -1.2163031,-2.1116 -1.5449219,-3.3731 -0.2330014,-0.894 -0.2773491,-1.8632 -0.2109374,-2.8183 l 0,-0 c 0.1061171,-1.528 0.2587606,-3.0785 0.9238281,-4.3047 0.6494559,-1.1973 1.7314851,-2.2227 2.9218751,-2.9433 1.164062,-0.7049 2.613064,-1.0005 4.058594,-1.2325 1.209665,-0.1941 2.428641,-0.3394 3.513672,-0.084 z"></path><path style="color:#000000;font-style:normal;font-variant:normal;font-weight:normal;font-stretch:normal;font-size:medium;line-height:normal;font-family:sans-serif;text-indent:0;text-align:start;text-decoration:none;text-decoration-line:none;text-decoration-style:solid;text-decoration-color:#000000;letter-spacing:normal;word-spacing:normal;text-transform:none;direction:ltr;block-progression:tb;writing-mode:lr-tb;baseline-shift:baseline;text-anchor:start;white-space:normal;clip-rule:nonzero;display:inline;overflow:visible;visibility:visible;opacity:1;isolation:auto;mix-blend-mode:normal;color-interpolation:sRGB;color-interpolation-filters:linearRGB;solid-color:#000000;solid-opacity:1;fill:#000000;fill-opacity:1;fill-rule:evenodd;stroke:none;stroke-width:0.5;stroke-linecap:round;stroke-linejoin:round;stroke-miterlimit:4;stroke-dasharray:none;stroke-dashoffset:0;stroke-opacity:1;color-rendering:auto;image-rendering:auto;shape-rendering:auto;text-rendering:auto;enable-background:accumulate" d="m 18.386719,1042.6426 a 0.250025,0.250025 0 0 0 -0.02734,0 l -3.517578,0.5743 a 0.250025,0.250025 0 0 0 -0.117188,0.4414 l 1.853516,1.4902 a 0.250025,0.250025 0 0 0 0.351563,-0.039 l 1.666015,-2.0625 a 0.250025,0.250025 0 0 0 -0.208984,-0.4062 z m -0.591797,0.6015 -1.097656,1.3594 -1.220704,-0.9824 2.31836,-0.377 z"></path><path style="color:#000000;font-style:normal;font-variant:normal;font-weight:normal;font-stretch:normal;font-size:medium;line-height:normal;font-family:sans-serif;text-indent:0;text-align:start;text-decoration:none;text-decoration-line:none;text-decoration-style:solid;text-decoration-color:#000000;letter-spacing:normal;word-spacing:normal;text-transform:none;direction:ltr;block-progression:tb;writing-mode:lr-tb;baseline-shift:baseline;text-anchor:start;white-space:normal;clip-rule:nonzero;display:inline;overflow:visible;visibility:visible;opacity:1;isolation:auto;mix-blend-mode:normal;color-interpolation:sRGB;color-interpolation-filters:linearRGB;solid-color:#000000;solid-opacity:1;fill:#000000;fill-opacity:1;fill-rule:evenodd;stroke:none;stroke-width:0.5;stroke-linecap:round;stroke-linejoin:round;stroke-miterlimit:4;stroke-dasharray:none;stroke-dashoffset:0;stroke-opacity:1;color-rendering:auto;image-rendering:auto;shape-rendering:auto;text-rendering:auto;enable-background:accumulate" d="m 19.480469,1045.791 a 0.250025,0.250025 0 0 0 -0.208985,0.1445 c 0,0 -0.08308,0.1768 -0.205078,0.377 -0.122002,0.2002 -0.300734,0.4209 -0.386718,0.4766 -0.213563,0.1386 -0.523812,0.1952 -0.789063,0.1543 -0.09292,-0.014 -0.328716,-0.1271 -0.509766,-0.2422 -0.181049,-0.1151 -0.320312,-0.2246 -0.320312,-0.2246 a 0.250025,0.250025 0 0 0 -0.380859,0.092 c 0,0 -0.07424,0.1571 -0.181641,0.3359 -0.107399,0.1788 -0.265716,0.3755 -0.333985,0.4199 -0.164968,0.1057 -0.406416,0.1555 -0.585937,0.1172 -0.0806,-0.017 -0.228346,-0.1073 -0.361328,-0.2207 -0.132982,-0.1134 -0.231691,-0.2296 -0.373047,-0.3184 a 0.25012389,0.25012389 0 0 0 -0.265625,0.4239 c 0.0099,0.01 0.157482,0.1413 0.3125,0.2734 0.155018,0.1322 0.339128,0.2802 0.582031,0.332 0.335303,0.072 0.685093,-0.01 0.962891,-0.1875 a 0.250025,0.250025 0 0 0 0.002,0 c 0.224331,-0.146 0.368133,-0.3787 0.490234,-0.582 0.03857,-0.064 0.03507,-0.067 0.06445,-0.1211 0.0529,0.037 0.05214,0.04 0.11914,0.082 0.203301,0.1293 0.441844,0.2744 0.703125,0.3145 0.382749,0.059 0.800434,-0.01 1.138672,-0.2285 0.241015,-0.156 0.402315,-0.4123 0.539063,-0.6367 0.136747,-0.2244 0.230468,-0.42 0.230468,-0.42 a 0.250025,0.250025 0 0 0 -0.242187,-0.3613 z"></path><path style="color:#000000;font-style:normal;font-variant:normal;font-weight:normal;font-stretch:normal;font-size:medium;line-height:normal;font-family:sans-serif;text-indent:0;text-align:start;text-decoration:none;text-decoration-line:none;text-decoration-style:solid;text-decoration-color:#000000;letter-spacing:normal;word-spacing:normal;text-transform:none;direction:ltr;block-progression:tb;writing-mode:lr-tb;baseline-shift:baseline;text-anchor:start;white-space:normal;clip-rule:nonzero;display:inline;overflow:visible;visibility:visible;opacity:1;isolation:auto;mix-blend-mode:normal;color-interpolation:sRGB;color-interpolation-filters:linearRGB;solid-color:#000000;solid-opacity:1;fill:#000000;fill-opacity:1;fill-rule:evenodd;stroke:none;stroke-width:0.5;stroke-linecap:butt;stroke-linejoin:miter;stroke-miterlimit:4;stroke-dasharray:none;stroke-dashoffset:0;stroke-opacity:1;color-rendering:auto;image-rendering:auto;shape-rendering:auto;text-rendering:auto;enable-background:accumulate" d="m 16.994141,1044.9102 -0.498047,0.051 0.179687,1.7774 0.498047,-0.051 -0.179687,-1.7773 z"></path><path style="color:#000000;font-style:normal;font-variant:normal;font-weight:normal;font-stretch:normal;font-size:medium;line-height:normal;font-family:sans-serif;text-indent:0;text-align:start;text-decoration:none;text-decoration-line:none;text-decoration-style:solid;text-decoration-color:#000000;letter-spacing:normal;word-spacing:normal;text-transform:none;direction:ltr;block-progression:tb;writing-mode:lr-tb;baseline-shift:baseline;text-anchor:start;white-space:normal;clip-rule:nonzero;display:inline;overflow:visible;visibility:visible;opacity:1;isolation:auto;mix-blend-mode:normal;color-interpolation:sRGB;color-interpolation-filters:linearRGB;solid-color:#000000;solid-opacity:1;fill:#000000;fill-opacity:1;fill-rule:evenodd;stroke:none;stroke-width:1px;stroke-linecap:round;stroke-linejoin:round;stroke-miterlimit:4;stroke-dasharray:none;stroke-dashoffset:0;stroke-opacity:1;color-rendering:auto;image-rendering:auto;shape-rendering:auto;text-rendering:auto;enable-background:accumulate" d="m 12.123047,1040.3027 a 0.50005,0.50005 0 0 0 -0.46875,0.6895 l 0.246094,0.6289 a 0.50005,0.50005 0 1 0 0.93164,-0.3633 l -0.246093,-0.6289 a 0.50005,0.50005 0 0 0 -0.462891,-0.3262 z"></path><path style="color:#000000;font-style:normal;font-variant:normal;font-weight:normal;font-stretch:normal;font-size:medium;line-height:normal;font-family:sans-serif;text-indent:0;text-align:start;text-decoration:none;text-decoration-line:none;text-decoration-style:solid;text-decoration-color:#000000;letter-spacing:normal;word-spacing:normal;text-transform:none;direction:ltr;block-progression:tb;writing-mode:lr-tb;baseline-shift:baseline;text-anchor:start;white-space:normal;clip-rule:nonzero;display:inline;overflow:visible;visibility:visible;opacity:1;isolation:auto;mix-blend-mode:normal;color-interpolation:sRGB;color-interpolation-filters:linearRGB;solid-color:#000000;solid-opacity:1;fill:#000000;fill-opacity:1;fill-rule:evenodd;stroke:none;stroke-width:1px;stroke-linecap:round;stroke-linejoin:round;stroke-miterlimit:4;stroke-dasharray:none;stroke-dashoffset:0;stroke-opacity:1;color-rendering:auto;image-rendering:auto;shape-rendering:auto;text-rendering:auto;enable-background:accumulate" d="m 20.328125,1038.8887 a 0.50005,0.50005 0 0 0 -0.478516,0.5215 l 0.01758,0.7246 a 0.50016126,0.50016126 0 1 0 1,-0.025 l -0.01953,-0.7266 a 0.50005,0.50005 0 0 0 -0.519531,-0.4941 z"></path><path style="color:#000000;font-style:normal;font-variant:normal;font-weight:normal;font-stretch:normal;font-size:medium;line-height:normal;font-family:sans-serif;text-indent:0;text-align:start;text-decoration:none;text-decoration-line:none;text-decoration-style:solid;text-decoration-color:#000000;letter-spacing:normal;word-spacing:normal;text-transform:none;direction:ltr;block-progression:tb;writing-mode:lr-tb;baseline-shift:baseline;text-anchor:start;white-space:normal;clip-rule:nonzero;display:inline;overflow:visible;visibility:visible;opacity:1;isolation:auto;mix-blend-mode:normal;color-interpolation:sRGB;color-interpolation-filters:linearRGB;solid-color:#000000;solid-opacity:1;fill:#000000;fill-opacity:1;fill-rule:evenodd;stroke:none;stroke-width:1px;stroke-linecap:butt;stroke-linejoin:miter;stroke-miterlimit:4;stroke-dasharray:none;stroke-dashoffset:0;stroke-opacity:1;color-rendering:auto;image-rendering:auto;shape-rendering:auto;text-rendering:auto;enable-background:accumulate" d="m 6.1777344,1022.0293 c -0.8123065,0.067 -1.5167963,0.573 -1.9316406,1.2227 -0.5719771,0.8958 -0.4086703,1.9353 -0.4199219,2.707 -0.01977,1.3747 -0.097781,2.9132 0.4921875,4.3262 0.4892084,1.1717 1.4613163,1.9402 2.1757812,2.7089 1.2726581,1.3691 3.9707034,3.7403 3.9707034,3.7403 l 0.662109,-0.75 c 0,0 -2.7180486,-2.4 -3.9003905,-3.6719 -0.7817351,-0.8411 -1.6241834,-1.5494 -1.984375,-2.4121 -0.4748313,-1.1372 -0.4360451,-2.5331 -0.4160156,-3.9258 0.012748,-0.8743 -0.049704,-1.6958 0.2617187,-2.1836 0.2484647,-0.3891 0.7618603,-0.7295 1.1699219,-0.7637 0.6017571,-0.049 1.3489407,0.3687 1.9433594,0.875 0.7187254,0.6124 1.1798657,1.6122 1.6503906,2.6192 0.5265665,1.1268 0.7528795,2.4502 1.1894535,3.7676 0.36041,1.0877 0.795024,2.1142 1.089843,3.1504 0.141907,0.4985 0.369141,1.6406 0.369141,1.6406 l 0.980469,-0.1934 c 0,0 -0.216179,-1.1147 -0.388672,-1.7207 -0.31758,-1.1161 -0.758373,-2.1556 -1.101563,-3.1914 -0.403826,-1.2186 -0.628788,-2.5832 -1.232422,-3.875 -0.463875,-0.9928 -0.953328,-2.1454 -1.9082026,-2.959 -0.6839813,-0.5826 -1.6068321,-1.1982 -2.671875,-1.1113 z"></path><path style="color:#000000;font-style:normal;font-variant:normal;font-weight:normal;font-stretch:normal;font-size:medium;line-height:normal;font-family:sans-serif;text-indent:0;text-align:start;text-decoration:none;text-decoration-line:none;text-decoration-style:solid;text-decoration-color:#000000;letter-spacing:normal;word-spacing:normal;text-transform:none;direction:ltr;block-progression:tb;writing-mode:lr-tb;baseline-shift:baseline;text-anchor:start;white-space:normal;clip-rule:nonzero;display:inline;overflow:visible;visibility:visible;opacity:1;isolation:auto;mix-blend-mode:normal;color-interpolation:sRGB;color-interpolation-filters:linearRGB;solid-color:#000000;solid-opacity:1;fill:#000000;fill-opacity:1;fill-rule:evenodd;stroke:none;stroke-width:1px;stroke-linecap:butt;stroke-linejoin:miter;stroke-miterlimit:4;stroke-dasharray:none;stroke-dashoffset:0;stroke-opacity:1;color-rendering:auto;image-rendering:auto;shape-rendering:auto;text-rendering:auto;enable-background:accumulate" d="m 25.720703,1020.3945 c -0.534807,-0.1036 -1.022863,0.058 -1.433594,0.2539 -0.410731,0.1964 -0.770776,0.437 -1.080078,0.5938 -1.157227,0.5863 -2.606575,1.1272 -3.507812,2.3672 -1.431877,1.97 -1.403404,4.5176 -1.898438,6.5976 -0.301038,1.2649 -0.724609,3.7364 -0.724609,3.7364 l 0.984375,0.1699 c 0,0 0.431328,-2.4927 0.712891,-3.6758 0.534765,-2.247 0.558651,-4.6226 1.734374,-6.2402 0.671763,-0.9243 1.931618,-1.445 3.150391,-2.0625 0.385998,-0.1957 0.738928,-0.4303 1.060547,-0.584 0.321619,-0.1538 0.583407,-0.2182 0.8125,-0.1738 0.502379,0.097 1.060538,0.6671 1.347656,1.2558 0.388797,0.797 0.344197,1.886 0.183594,2.9121 -0.155127,0.9912 -0.56271,1.9784 -1.130859,2.8145 -0.837794,1.2328 -2.339271,2.0555 -3.544922,3.3398 -0.75486,0.8041 -2.033203,2.4414 -2.033203,2.4414 l 0.785156,0.6172 c 0,0 1.302822,-1.6553 1.976562,-2.373 1.053149,-1.1219 2.624525,-1.962 3.644532,-3.4629 0.64825,-0.954 1.110542,-2.0675 1.291015,-3.2207 0.170998,-1.0925 0.276366,-2.3789 -0.273437,-3.5059 -0.383882,-0.7871 -1.06762,-1.609 -2.056641,-1.8008 z"></path><path style="color:#000000;font-style:normal;font-variant:normal;font-weight:normal;font-stretch:normal;font-size:medium;line-height:normal;font-family:sans-serif;text-indent:0;text-align:start;text-decoration:none;text-decoration-line:none;text-decoration-style:solid;text-decoration-color:#000000;letter-spacing:normal;word-spacing:normal;text-transform:none;direction:ltr;block-progression:tb;writing-mode:lr-tb;baseline-shift:baseline;text-anchor:start;white-space:normal;clip-rule:nonzero;display:inline;overflow:visible;visibility:visible;opacity:1;isolation:auto;mix-blend-mode:normal;color-interpolation:sRGB;color-interpolation-filters:linearRGB;solid-color:#000000;solid-opacity:1;fill:#000000;fill-opacity:1;fill-rule:evenodd;stroke:none;stroke-width:0.5;stroke-linecap:round;stroke-linejoin:round;stroke-miterlimit:4;stroke-dasharray:none;stroke-dashoffset:0;stroke-opacity:1;color-rendering:auto;image-rendering:auto;shape-rendering:auto;text-rendering:auto;enable-background:accumulate" d="m 24.755859,1023.7578 c -0.481713,-0.2461 -1.022677,-0.109 -1.4375,0.022 -0.208131,0.066 -0.396765,0.2012 -0.558593,0.3203 -0.161828,0.1191 -0.285157,0.2266 -0.285157,0.2266 a 0.250025,0.250025 0 1 0 0.326172,0.3769 c 0,0 0.111113,-0.095 0.25586,-0.2011 0.144242,-0.1062 0.332649,-0.2206 0.412109,-0.2461 0.379777,-0.1195 0.799261,-0.1863 1.060547,-0.053 0.296273,0.1514 0.536767,0.5569 0.626953,0.9414 0.106572,0.4544 -0.02541,1.0001 -0.216797,1.4961 -0.20683,0.5363 -0.67651,0.9924 -1.068359,1.5508 -1.285897,1.8322 -3.931641,5.4609 -3.931641,5.4609 a 0.250025,0.250025 0 1 0 0.402344,0.295 c 0,0 2.644597,-3.6266 3.9375,-5.4688 0.352551,-0.5024 0.866584,-0.9831 1.126953,-1.6582 0.206211,-0.5344 0.382156,-1.1674 0.236328,-1.7891 -0.114613,-0.4886 -0.390191,-1.0197 -0.886719,-1.2734 z"></path><path style="color:#000000;font-style:normal;font-variant:normal;font-weight:normal;font-stretch:normal;font-size:medium;line-height:normal;font-family:sans-serif;text-indent:0;text-align:start;text-decoration:none;text-decoration-line:none;text-decoration-style:solid;text-decoration-color:#000000;letter-spacing:normal;word-spacing:normal;text-transform:none;direction:ltr;block-progression:tb;writing-mode:lr-tb;baseline-shift:baseline;text-anchor:start;white-space:normal;clip-rule:nonzero;display:inline;overflow:visible;visibility:visible;opacity:1;isolation:auto;mix-blend-mode:normal;color-interpolation:sRGB;color-interpolation-filters:linearRGB;solid-color:#000000;solid-opacity:1;fill:#000000;fill-opacity:1;fill-rule:evenodd;stroke:none;stroke-width:0.5;stroke-linecap:round;stroke-linejoin:round;stroke-miterlimit:4;stroke-dasharray:none;stroke-dashoffset:0;stroke-opacity:1;color-rendering:auto;image-rendering:auto;shape-rendering:auto;text-rendering:auto;enable-background:accumulate" d="m 8.2558594,1026.418 c -0.3278386,0 -0.7089122,0.016 -1.0136719,0.166 -0.4156222,0.2047 -0.7555623,0.5775 -0.9179687,1.0156 -0.2180375,0.5887 -0.092783,1.2179 0.029297,1.7481 0.1794097,0.7785 0.5472196,1.502 0.9804688,2.1464 0.6040745,0.8986 1.437982,1.5685 2.1484375,2.2891 0.5873261,0.5959 1.7851561,1.7266 1.7851561,1.7266 a 0.25080279,0.25080279 0 1 0 0.34375,-0.3653 c 0,0 -1.20101,-1.1341 -1.7714842,-1.7129 -0.7371445,-0.7476 -1.5415183,-1.4011 -2.0898438,-2.2168 -0.4097508,-0.6095 -0.749366,-1.2827 -0.9101562,-1.9804 -0.1179201,-0.5121 -0.2000376,-1.0474 -0.046875,-1.461 0.1129935,-0.3048 0.3795441,-0.5991 0.6699218,-0.7422 0.1386403,-0.068 0.4958604,-0.1119 0.7949219,-0.1132 0.2990615,-0 0.5449219,0.023 0.5449219,0.023 a 0.2502912,0.2502912 0 0 0 0.050781,-0.498 c 0,0 -0.2698177,-0.027 -0.5976562,-0.025 z"></path><path style="color:#000000;font-style:normal;font-variant:normal;font-weight:normal;font-stretch:normal;font-size:medium;line-height:normal;font-family:sans-serif;text-indent:0;text-align:start;text-decoration:none;text-decoration-line:none;text-decoration-style:solid;text-decoration-color:#000000;letter-spacing:normal;word-spacing:normal;text-transform:none;direction:ltr;block-progression:tb;writing-mode:lr-tb;baseline-shift:baseline;text-anchor:start;white-space:normal;clip-rule:nonzero;display:inline;overflow:visible;visibility:visible;opacity:1;isolation:auto;mix-blend-mode:normal;color-interpolation:sRGB;color-interpolation-filters:linearRGB;solid-color:#000000;solid-opacity:1;fill:#000000;fill-opacity:1;fill-rule:evenodd;stroke:none;stroke-width:0.5;stroke-linecap:butt;stroke-linejoin:miter;stroke-miterlimit:4;stroke-dasharray:none;stroke-dashoffset:0;stroke-opacity:1;color-rendering:auto;image-rendering:auto;shape-rendering:auto;text-rendering:auto;enable-background:accumulate" d="m 7.5019531,1027.5586 -1.1054687,1.2812 0.3789062,0.3282 1.1054688,-1.2832 -0.3789063,-0.3262 z"></path><path style="color:#000000;font-style:normal;font-variant:normal;font-weight:normal;font-stretch:normal;font-size:medium;line-height:normal;font-family:sans-serif;text-indent:0;text-align:start;text-decoration:none;text-decoration-line:none;text-decoration-style:solid;text-decoration-color:#000000;letter-spacing:normal;word-spacing:normal;text-transform:none;direction:ltr;block-progression:tb;writing-mode:lr-tb;baseline-shift:baseline;text-anchor:start;white-space:normal;clip-rule:nonzero;display:inline;overflow:visible;visibility:visible;opacity:1;isolation:auto;mix-blend-mode:normal;color-interpolation:sRGB;color-interpolation-filters:linearRGB;solid-color:#000000;solid-opacity:1;fill:#000000;fill-opacity:1;fill-rule:evenodd;stroke:none;stroke-width:0.5;stroke-linecap:butt;stroke-linejoin:miter;stroke-miterlimit:4;stroke-dasharray:none;stroke-dashoffset:0;stroke-opacity:1;color-rendering:auto;image-rendering:auto;shape-rendering:auto;text-rendering:auto;enable-background:accumulate" d="m 7.8828125,1028.375 -1.1269531,1.6367 0.4121094,0.2832 1.1269531,-1.6347 -0.4121094,-0.2852 z"></path><path style="color:#000000;font-style:normal;font-variant:normal;font-weight:normal;font-stretch:normal;font-size:medium;line-height:normal;font-family:sans-serif;text-indent:0;text-align:start;text-decoration:none;text-decoration-line:none;text-decoration-style:solid;text-decoration-color:#000000;letter-spacing:normal;word-spacing:normal;text-transform:none;direction:ltr;block-progression:tb;writing-mode:lr-tb;baseline-shift:baseline;text-anchor:start;white-space:normal;clip-rule:nonzero;display:inline;overflow:visible;visibility:visible;opacity:1;isolation:auto;mix-blend-mode:normal;color-interpolation:sRGB;color-interpolation-filters:linearRGB;solid-color:#000000;solid-opacity:1;fill:#000000;fill-opacity:1;fill-rule:evenodd;stroke:none;stroke-width:0.5;stroke-linecap:butt;stroke-linejoin:miter;stroke-miterlimit:4;stroke-dasharray:none;stroke-dashoffset:0;stroke-opacity:1;color-rendering:auto;image-rendering:auto;shape-rendering:auto;text-rendering:auto;enable-background:accumulate" d="m 8.3867188,1029.459 -1.1054688,1.2812 0.3789062,0.3282 1.1054688,-1.2832 -0.3789062,-0.3262 z"></path><path style="color:#000000;font-style:normal;font-variant:normal;font-weight:normal;font-stretch:normal;font-size:medium;line-height:normal;font-family:sans-serif;text-indent:0;text-align:start;text-decoration:none;text-decoration-line:none;text-decoration-style:solid;text-decoration-color:#000000;letter-spacing:normal;word-spacing:normal;text-transform:none;direction:ltr;block-progression:tb;writing-mode:lr-tb;baseline-shift:baseline;text-anchor:start;white-space:normal;clip-rule:nonzero;display:inline;overflow:visible;visibility:visible;opacity:1;isolation:auto;mix-blend-mode:normal;color-interpolation:sRGB;color-interpolation-filters:linearRGB;solid-color:#000000;solid-opacity:1;fill:#000000;fill-opacity:1;fill-rule:evenodd;stroke:none;stroke-width:0.5;stroke-linecap:butt;stroke-linejoin:miter;stroke-miterlimit:4;stroke-dasharray:none;stroke-dashoffset:0;stroke-opacity:1;color-rendering:auto;image-rendering:auto;shape-rendering:auto;text-rendering:auto;enable-background:accumulate" d="m 8.7675781,1030.2754 -1.1269531,1.6367 0.4121094,0.2832 1.1269531,-1.6348 -0.4121094,-0.2851 z"></path><path style="color:#000000;font-style:normal;font-variant:normal;font-weight:normal;font-stretch:normal;font-size:medium;line-height:normal;font-family:sans-serif;text-indent:0;text-align:start;text-decoration:none;text-decoration-line:none;text-decoration-style:solid;text-decoration-color:#000000;letter-spacing:normal;word-spacing:normal;text-transform:none;direction:ltr;block-progression:tb;writing-mode:lr-tb;baseline-shift:baseline;text-anchor:start;white-space:normal;clip-rule:nonzero;display:inline;overflow:visible;visibility:visible;opacity:1;isolation:auto;mix-blend-mode:normal;color-interpolation:sRGB;color-interpolation-filters:linearRGB;solid-color:#000000;solid-opacity:1;fill:#000000;fill-opacity:1;fill-rule:evenodd;stroke:none;stroke-width:0.5;stroke-linecap:butt;stroke-linejoin:miter;stroke-miterlimit:4;stroke-dasharray:none;stroke-dashoffset:0;stroke-opacity:1;color-rendering:auto;image-rendering:auto;shape-rendering:auto;text-rendering:auto;enable-background:accumulate" d="m 9.3886719,1031.0684 -0.9726563,1.3711 0.4082032,0.289 0.9707031,-1.3711 -0.40625,-0.289 z"></path><path style="color:#000000;font-style:normal;font-variant:normal;font-weight:normal;font-stretch:normal;font-size:medium;line-height:normal;font-family:sans-serif;text-indent:0;text-align:start;text-decoration:none;text-decoration-line:none;text-decoration-style:solid;text-decoration-color:#000000;letter-spacing:normal;word-spacing:normal;text-transform:none;direction:ltr;block-progression:tb;writing-mode:lr-tb;baseline-shift:baseline;text-anchor:start;white-space:normal;clip-rule:nonzero;display:inline;overflow:visible;visibility:visible;opacity:1;isolation:auto;mix-blend-mode:normal;color-interpolation:sRGB;color-interpolation-filters:linearRGB;solid-color:#000000;solid-opacity:1;fill:#000000;fill-opacity:1;fill-rule:evenodd;stroke:none;stroke-width:0.5;stroke-linecap:butt;stroke-linejoin:miter;stroke-miterlimit:4;stroke-dasharray:none;stroke-dashoffset:0;stroke-opacity:1;color-rendering:auto;image-rendering:auto;shape-rendering:auto;text-rendering:auto;enable-background:accumulate" d="m 9.9082031,1031.9668 -0.6855469,1.127 0.4277344,0.2597 0.6855474,-1.1269 -0.4277349,-0.2598 z"></path><path style="color:#000000;font-style:normal;font-variant:normal;font-weight:normal;font-stretch:normal;font-size:medium;line-height:normal;font-family:sans-serif;text-indent:0;text-align:start;text-decoration:none;text-decoration-line:none;text-decoration-style:solid;text-decoration-color:#000000;letter-spacing:normal;word-spacing:normal;text-transform:none;direction:ltr;block-progression:tb;writing-mode:lr-tb;baseline-shift:baseline;text-anchor:start;white-space:normal;clip-rule:nonzero;display:inline;overflow:visible;visibility:visible;opacity:1;isolation:auto;mix-blend-mode:normal;color-interpolation:sRGB;color-interpolation-filters:linearRGB;solid-color:#000000;solid-opacity:1;fill:#000000;fill-opacity:1;fill-rule:evenodd;stroke:none;stroke-width:0.5;stroke-linecap:butt;stroke-linejoin:miter;stroke-miterlimit:4;stroke-dasharray:none;stroke-dashoffset:0;stroke-opacity:1;color-rendering:auto;image-rendering:auto;shape-rendering:auto;text-rendering:auto;enable-background:accumulate" d="m 10.59375,1032.7852 -0.6855469,1.1269 0.4277349,0.2598 0.685546,-1.127 -0.427734,-0.2597 z"></path><path style="color:#000000;font-style:normal;font-variant:normal;font-weight:normal;font-stretch:normal;font-size:medium;line-height:normal;font-family:sans-serif;text-indent:0;text-align:start;text-decoration:none;text-decoration-line:none;text-decoration-style:solid;text-decoration-color:#000000;letter-spacing:normal;word-spacing:normal;text-transform:none;direction:ltr;block-progression:tb;writing-mode:lr-tb;baseline-shift:baseline;text-anchor:start;white-space:normal;clip-rule:nonzero;display:inline;overflow:visible;visibility:visible;opacity:1;isolation:auto;mix-blend-mode:normal;color-interpolation:sRGB;color-interpolation-filters:linearRGB;solid-color:#000000;solid-opacity:1;fill:#000000;fill-opacity:1;fill-rule:evenodd;stroke:none;stroke-width:0.5;stroke-linecap:butt;stroke-linejoin:miter;stroke-miterlimit:4;stroke-dasharray:none;stroke-dashoffset:0;stroke-opacity:1;color-rendering:auto;image-rendering:auto;shape-rendering:auto;text-rendering:auto;enable-background:accumulate" d="m 11.164062,1033.5508 -0.685546,1.1269 0.427734,0.2598 0.685547,-1.127 -0.427735,-0.2597 z"></path><path style="color:#000000;font-style:normal;font-variant:normal;font-weight:normal;font-stretch:normal;font-size:medium;line-height:normal;font-family:sans-serif;text-indent:0;text-align:start;text-decoration:none;text-decoration-line:none;text-decoration-style:solid;text-decoration-color:#000000;letter-spacing:normal;word-spacing:normal;text-transform:none;direction:ltr;block-progression:tb;writing-mode:lr-tb;baseline-shift:baseline;text-anchor:start;white-space:normal;clip-rule:nonzero;display:inline;overflow:visible;visibility:visible;opacity:1;isolation:auto;mix-blend-mode:normal;color-interpolation:sRGB;color-interpolation-filters:linearRGB;solid-color:#000000;solid-opacity:1;fill:#000000;fill-opacity:1;fill-rule:evenodd;stroke:none;stroke-width:0.5;stroke-linecap:butt;stroke-linejoin:miter;stroke-miterlimit:4;stroke-dasharray:none;stroke-dashoffset:0;stroke-opacity:1;color-rendering:auto;image-rendering:auto;shape-rendering:auto;text-rendering:auto;enable-background:accumulate" d="m 24.416016,1024.6523 -0.378907,0.3262 1.105469,1.2832 0.378906,-0.3281 -1.105468,-1.2813 z"></path><path style="color:#000000;font-style:normal;font-variant:normal;font-weight:normal;font-stretch:normal;font-size:medium;line-height:normal;font-family:sans-serif;text-indent:0;text-align:start;text-decoration:none;text-decoration-line:none;text-decoration-style:solid;text-decoration-color:#000000;letter-spacing:normal;word-spacing:normal;text-transform:none;direction:ltr;block-progression:tb;writing-mode:lr-tb;baseline-shift:baseline;text-anchor:start;white-space:normal;clip-rule:nonzero;display:inline;overflow:visible;visibility:visible;opacity:1;isolation:auto;mix-blend-mode:normal;color-interpolation:sRGB;color-interpolation-filters:linearRGB;solid-color:#000000;solid-opacity:1;fill:#000000;fill-opacity:1;fill-rule:evenodd;stroke:none;stroke-width:0.5;stroke-linecap:butt;stroke-linejoin:miter;stroke-miterlimit:4;stroke-dasharray:none;stroke-dashoffset:0;stroke-opacity:1;color-rendering:auto;image-rendering:auto;shape-rendering:auto;text-rendering:auto;enable-background:accumulate" d="m 24.035156,1025.4688 -0.412109,0.2851 1.126953,1.6348 0.412109,-0.2832 -1.126953,-1.6367 z"></path><path style="color:#000000;font-style:normal;font-variant:normal;font-weight:normal;font-stretch:normal;font-size:medium;line-height:normal;font-family:sans-serif;text-indent:0;text-align:start;text-decoration:none;text-decoration-line:none;text-decoration-style:solid;text-decoration-color:#000000;letter-spacing:normal;word-spacing:normal;text-transform:none;direction:ltr;block-progression:tb;writing-mode:lr-tb;baseline-shift:baseline;text-anchor:start;white-space:normal;clip-rule:nonzero;display:inline;overflow:visible;visibility:visible;opacity:1;isolation:auto;mix-blend-mode:normal;color-interpolation:sRGB;color-interpolation-filters:linearRGB;solid-color:#000000;solid-opacity:1;fill:#000000;fill-opacity:1;fill-rule:evenodd;stroke:none;stroke-width:0.5;stroke-linecap:butt;stroke-linejoin:miter;stroke-miterlimit:4;stroke-dasharray:none;stroke-dashoffset:0;stroke-opacity:1;color-rendering:auto;image-rendering:auto;shape-rendering:auto;text-rendering:auto;enable-background:accumulate" d="m 23.53125,1026.5527 -0.376953,0.3262 1.103515,1.2832 0.378907,-0.3281 -1.105469,-1.2813 z"></path><path style="color:#000000;font-style:normal;font-variant:normal;font-weight:normal;font-stretch:normal;font-size:medium;line-height:normal;font-family:sans-serif;text-indent:0;text-align:start;text-decoration:none;text-decoration-line:none;text-decoration-style:solid;text-decoration-color:#000000;letter-spacing:normal;word-spacing:normal;text-transform:none;direction:ltr;block-progression:tb;writing-mode:lr-tb;baseline-shift:baseline;text-anchor:start;white-space:normal;clip-rule:nonzero;display:inline;overflow:visible;visibility:visible;opacity:1;isolation:auto;mix-blend-mode:normal;color-interpolation:sRGB;color-interpolation-filters:linearRGB;solid-color:#000000;solid-opacity:1;fill:#000000;fill-opacity:1;fill-rule:evenodd;stroke:none;stroke-width:0.5;stroke-linecap:butt;stroke-linejoin:miter;stroke-miterlimit:4;stroke-dasharray:none;stroke-dashoffset:0;stroke-opacity:1;color-rendering:auto;image-rendering:auto;shape-rendering:auto;text-rendering:auto;enable-background:accumulate" d="m 23.148438,1027.3672 -0.40625,0.291 0.923828,1.291 0.40625,-0.291 -0.923828,-1.291 z"></path><path style="color:#000000;font-style:normal;font-variant:normal;font-weight:normal;font-stretch:normal;font-size:medium;line-height:normal;font-family:sans-serif;text-indent:0;text-align:start;text-decoration:none;text-decoration-line:none;text-decoration-style:solid;text-decoration-color:#000000;letter-spacing:normal;word-spacing:normal;text-transform:none;direction:ltr;block-progression:tb;writing-mode:lr-tb;baseline-shift:baseline;text-anchor:start;white-space:normal;clip-rule:nonzero;display:inline;overflow:visible;visibility:visible;opacity:1;isolation:auto;mix-blend-mode:normal;color-interpolation:sRGB;color-interpolation-filters:linearRGB;solid-color:#000000;solid-opacity:1;fill:#000000;fill-opacity:1;fill-rule:evenodd;stroke:none;stroke-width:0.5;stroke-linecap:butt;stroke-linejoin:miter;stroke-miterlimit:4;stroke-dasharray:none;stroke-dashoffset:0;stroke-opacity:1;color-rendering:auto;image-rendering:auto;shape-rendering:auto;text-rendering:auto;enable-background:accumulate" d="m 22.529297,1028.1621 -0.40625,0.2891 0.970703,1.3711 0.408203,-0.2891 -0.972656,-1.3711 z"></path><path style="color:#000000;font-style:normal;font-variant:normal;font-weight:normal;font-stretch:normal;font-size:medium;line-height:normal;font-family:sans-serif;text-indent:0;text-align:start;text-decoration:none;text-decoration-line:none;text-decoration-style:solid;text-decoration-color:#000000;letter-spacing:normal;word-spacing:normal;text-transform:none;direction:ltr;block-progression:tb;writing-mode:lr-tb;baseline-shift:baseline;text-anchor:start;white-space:normal;clip-rule:nonzero;display:inline;overflow:visible;visibility:visible;opacity:1;isolation:auto;mix-blend-mode:normal;color-interpolation:sRGB;color-interpolation-filters:linearRGB;solid-color:#000000;solid-opacity:1;fill:#000000;fill-opacity:1;fill-rule:evenodd;stroke:none;stroke-width:0.5;stroke-linecap:butt;stroke-linejoin:miter;stroke-miterlimit:4;stroke-dasharray:none;stroke-dashoffset:0;stroke-opacity:1;color-rendering:auto;image-rendering:auto;shape-rendering:auto;text-rendering:auto;enable-background:accumulate" d="m 22.009766,1029.0605 -0.427735,0.2598 0.685547,1.127 0.427734,-0.2598 -0.685546,-1.127 z"></path><path style="color:#000000;font-style:normal;font-variant:normal;font-weight:normal;font-stretch:normal;font-size:medium;line-height:normal;font-family:sans-serif;text-indent:0;text-align:start;text-decoration:none;text-decoration-line:none;text-decoration-style:solid;text-decoration-color:#000000;letter-spacing:normal;word-spacing:normal;text-transform:none;direction:ltr;block-progression:tb;writing-mode:lr-tb;baseline-shift:baseline;text-anchor:start;white-space:normal;clip-rule:nonzero;display:inline;overflow:visible;visibility:visible;opacity:1;isolation:auto;mix-blend-mode:normal;color-interpolation:sRGB;color-interpolation-filters:linearRGB;solid-color:#000000;solid-opacity:1;fill:#000000;fill-opacity:1;fill-rule:evenodd;stroke:none;stroke-width:0.5;stroke-linecap:butt;stroke-linejoin:miter;stroke-miterlimit:4;stroke-dasharray:none;stroke-dashoffset:0;stroke-opacity:1;color-rendering:auto;image-rendering:auto;shape-rendering:auto;text-rendering:auto;enable-background:accumulate" d="m 21.480469,1030.082 -0.427735,0.2598 0.685547,1.127 0.427735,-0.2598 -0.685547,-1.127 z"></path><path style="color:#000000;font-style:normal;font-variant:normal;font-weight:normal;font-stretch:normal;font-size:medium;line-height:normal;font-family:sans-serif;text-indent:0;text-align:start;text-decoration:none;text-decoration-line:none;text-decoration-style:solid;text-decoration-color:#000000;letter-spacing:normal;word-spacing:normal;text-transform:none;direction:ltr;block-progression:tb;writing-mode:lr-tb;baseline-shift:baseline;text-anchor:start;white-space:normal;clip-rule:nonzero;display:inline;overflow:visible;visibility:visible;opacity:1;isolation:auto;mix-blend-mode:normal;color-interpolation:sRGB;color-interpolation-filters:linearRGB;solid-color:#000000;solid-opacity:1;fill:#000000;fill-opacity:1;fill-rule:evenodd;stroke:none;stroke-width:0.5;stroke-linecap:butt;stroke-linejoin:miter;stroke-miterlimit:4;stroke-dasharray:none;stroke-dashoffset:0;stroke-opacity:1;color-rendering:auto;image-rendering:auto;shape-rendering:auto;text-rendering:auto;enable-background:accumulate" d="m 20.839844,1030.957 -0.427735,0.2598 0.685547,1.127 0.427735,-0.2598 -0.685547,-1.127 z"></path><path style="color:#000000;font-style:normal;font-variant:normal;font-weight:normal;font-stretch:normal;font-size:medium;line-height:normal;font-family:sans-serif;text-indent:0;text-align:start;text-decoration:none;text-decoration-line:none;text-decoration-style:solid;text-decoration-color:#000000;letter-spacing:normal;word-spacing:normal;text-transform:none;direction:ltr;block-progression:tb;writing-mode:lr-tb;baseline-shift:baseline;text-anchor:start;white-space:normal;clip-rule:nonzero;display:inline;overflow:visible;visibility:visible;opacity:1;isolation:auto;mix-blend-mode:normal;color-interpolation:sRGB;color-interpolation-filters:linearRGB;solid-color:#000000;solid-opacity:1;fill:#000000;fill-opacity:1;fill-rule:evenodd;stroke:none;stroke-width:0.5;stroke-linecap:butt;stroke-linejoin:miter;stroke-miterlimit:4;stroke-dasharray:none;stroke-dashoffset:0;stroke-opacity:1;color-rendering:auto;image-rendering:auto;shape-rendering:auto;text-rendering:auto;enable-background:accumulate" d="m 20.320312,1031.7305 -0.425781,0.2597 0.683594,1.127 0.427734,-0.2598 -0.685547,-1.1269 z"></path></g></svg>